grf
version=1
nRows=94
nColumns=10
inDegrees=yes
endheader
time	ground_force_3_vx	ground_force_3_vy	ground_force_3_vz	ground_force_3_px	ground_force_3_py	ground_force_3_pz	ground_moment_3_mx	ground_moment_3_my	ground_moment_3_mz
0.481000	-5.725119	326.814966	18.680589	0.241247	0.000000	0.138078	0.000000	-0.298346	-0.000000
0.482000	-5.534833	326.291203	18.459151	0.242991	0.000000	0.137137	0.000000	-0.299634	-0.000000
0.483000	-5.342184	325.804204	18.230774	0.243034	0.000000	0.136164	0.000000	-0.301727	-0.000000
0.484000	-5.146277	325.350487	17.996335	0.241833	0.000000	0.137248	0.000000	-0.304548	-0.000000
0.485000	-4.946481	324.925928	17.756856	0.243085	0.000000	0.138871	0.000000	-0.308048	-0.000000
0.486000	-4.742315	324.525776	17.513388	0.242448	0.000000	0.139321	0.000000	-0.312210	-0.000000
0.487000	-4.533384	324.145129	17.266976	0.242738	0.000000	0.139274	0.000000	-0.317051	-0.000000
0.488000	-4.319358	323.779479	17.018696	0.242878	0.000000	0.138466	0.000000	-0.322617	-0.000000
0.489000	-4.099884	323.425179	16.769622	0.242005	0.000000	0.137861	0.000000	-0.328978	-0.000000
0.490000	-3.874497	323.079770	16.520758	0.240953	0.000000	0.138173	0.000000	-0.336217	-0.000000
0.491000	-3.642647	322.742151	16.273075	0.243603	0.000000	0.138669	0.000000	-0.344418	-0.000000
0.492000	-3.403744	322.412504	16.027562	0.245103	0.000000	0.137804	0.000000	-0.353657	-0.000000
0.493000	-3.157186	322.091834	15.785156	0.244024	0.000000	0.138646	0.000000	-0.363989	-0.000000
0.494000	-2.902415	321.781538	15.546596	0.245257	0.000000	0.141143	0.000000	-0.375423	-0.000000
0.495000	-2.639045	321.483169	15.312343	0.246936	0.000000	0.142009	0.000000	-0.387907	-0.000000
0.496000	-2.366955	321.198256	15.082663	0.245520	0.000000	0.139437	0.000000	-0.401351	0.000000
0.497000	-2.086237	320.928277	14.857734	0.242046	0.000000	0.139506	0.000000	-0.415655	0.000000
0.498000	-1.797066	320.674807	14.637699	0.243641	0.000000	0.138081	0.000000	-0.430721	0.000000
0.499000	-1.499653	320.439597	14.422681	0.242656	0.000000	0.137968	0.000000	-0.446432	0.000000
0.500000	-1.194289	320.224258	14.212744	0.242335	0.000000	0.137981	0.000000	-0.462633	0.000000
0.501000	-0.881397	320.029725	14.007844	0.243336	0.000000	0.138306	0.000000	-0.479142	0.000000
0.502000	-0.561498	319.856071	13.807798	0.244227	0.000000	0.139388	0.000000	-0.495786	0.000000
0.503000	-0.235153	319.702833	13.612328	0.243073	0.000000	0.139069	0.000000	-0.512435	0.000000
0.504000	0.097032	319.569380	13.421156	0.246047	0.000000	0.138720	0.000000	-0.529006	0.000000
0.505000	0.434396	319.455051	13.234079	0.244805	0.000000	0.137842	0.000000	-0.545445	0.000000
0.506000	0.776241	319.359192	13.050986	0.243487	0.000000	0.137757	0.000000	-0.561726	0.000000
0.507000	1.121897	319.281307	12.871836	0.243365	0.000000	0.138068	0.000000	-0.577820	0.000000
0.508000	1.470821	319.221382	12.696645	0.243164	0.000000	0.137608	0.000000	-0.593688	0.000000
0.509000	1.822604	319.180081	12.525502	0.244979	0.000000	0.138884	0.000000	-0.609298	0.000000
0.510000	2.176926	319.158597	12.358567	0.245292	0.000000	0.139960	0.000000	-0.624648	0.000000
0.511000	2.533551	319.158469	12.196004	0.241560	0.000000	0.138705	0.000000	-0.639765	0.000000
0.512000	2.892319	319.181578	12.037905	0.240354	0.000000	0.138561	0.000000	-0.654678	0.000000
0.513000	3.253101	319.230286	11.884308	0.242845	0.000000	0.139716	0.000000	-0.669418	0.000000
0.514000	3.615742	319.307535	11.735233	0.244483	0.000000	0.139002	0.000000	-0.684009	0.000000
0.515000	3.980077	319.416411	11.590678	0.248552	0.000000	0.138101	0.000000	-0.698464	0.000000
0.516000	4.345976	319.559221	11.450639	0.245247	0.000000	0.139359	0.000000	-0.712788	0.000000
0.517000	4.713317	319.736948	11.315169	0.245185	0.000000	0.138832	0.000000	-0.726995	0.000000
0.518000	5.081918	319.949473	11.184399	0.246767	0.000000	0.138820	0.000000	-0.741109	0.000000
0.519000	5.451552	320.196165	11.058548	0.246864	0.000000	0.140097	0.000000	-0.755158	0.000000
0.520000	5.822020	320.476469	10.937947	0.244349	0.000000	0.140215	0.000000	-0.769175	0.000000
0.521000	6.193156	320.790146	10.822996	0.247148	0.000000	0.139804	0.000000	-0.783200	0.000000
0.522000	6.564767	321.137093	10.714076	0.245243	0.000000	0.139556	0.000000	-0.797259	0.000000
0.523000	6.936613	321.517145	10.611543	0.243497	0.000000	0.139396	0.000000	-0.811365	0.000000
0.524000	7.308436	321.929984	10.515803	0.241694	0.000000	0.137808	0.000000	-0.825518	0.000000
0.525000	7.680007	322.374901	10.427320	0.240870	0.000000	0.135869	0.000000	-0.839717	0.000000
0.526000	8.051142	322.850490	10.346524	0.245451	0.000000	0.138705	0.000000	-0.853944	0.000000
0.527000	8.421724	323.354687	10.273765	0.243998	0.000000	0.138522	0.000000	-0.868177	0.000000
0.528000	8.791690	323.885153	10.209359	0.246647	0.000000	0.138902	0.000000	-0.882401	0.000000
0.529000	9.160985	324.439557	10.153653	0.247768	0.000000	0.138930	0.000000	-0.896627	0.000000
0.530000	9.529540	325.015705	10.106993	0.247217	0.000000	0.139142	0.000000	-0.910883	0.000000
0.531000	9.897310	325.611599	10.069661	0.245996	0.000000	0.140241	0.000000	-0.925192	0.000000
0.532000	10.264313	326.225525	10.041834	0.243190	0.000000	0.142142	0.000000	-0.939560	0.000000
0.533000	10.630641	326.856234	10.023580	0.243475	0.000000	0.141241	0.000000	-0.953975	0.000000
0.534000	10.996489	327.503184	10.014839	0.245132	0.000000	0.140735	0.000000	-0.968414	0.000000
0.535000	11.362198	328.166669	10.015416	0.249262	0.000000	0.140562	0.000000	-0.982843	0.000000
0.536000	11.728259	328.847769	10.025029	0.251115	0.000000	0.140257	0.000000	-0.997214	0.000000
0.537000	12.095279	329.548163	10.043374	0.247260	0.000000	0.139661	0.000000	-1.011466	0.000000
0.538000	12.463969	330.269949	10.070137	0.245098	0.000000	0.139915	0.000000	-1.025521	0.000000
0.539000	12.835115	331.015453	10.104974	0.245159	0.000000	0.140663	0.000000	-1.039284	0.000000
0.540000	13.209525	331.786748	10.147477	0.243743	0.000000	0.140480	0.000000	-1.052645	0.000000
0.541000	13.587949	332.584891	10.197166	0.244367	0.000000	0.139747	0.000000	-1.065479	0.000000
0.542000	13.971046	333.409656	10.253549	0.246164	0.000000	0.139388	0.000000	-1.077670	0.000000
0.543000	14.359334	334.260236	10.316226	0.246488	0.000000	0.140061	0.000000	-1.089131	0.000000
0.544000	14.753139	335.136021	10.384937	0.246899	0.000000	0.140591	0.000000	-1.099832	-0.000000
0.545000	15.152595	336.036776	10.459492	0.248075	0.000000	0.140229	0.000000	-1.109787	-0.000000
0.546000	15.557717	336.962656	10.539706	0.247111	0.000000	0.140944	0.000000	-1.119027	-0.000000
0.547000	15.968450	337.914252	10.625397	0.246603	0.000000	0.141895	0.000000	-1.127582	-0.000000
0.548000	16.384696	338.892442	10.716387	0.246689	0.000000	0.141949	0.000000	-1.135486	-0.000000
0.549000	16.806284	339.897993	10.812489	0.245902	0.000000	0.140631	0.000000	-1.142772	-0.000000
0.550000	17.232919	340.931109	10.913518	0.246576	0.000000	0.140729	0.000000	-1.149473	0.000000
0.551000	17.664224	341.991273	11.019286	0.245157	0.000000	0.139970	0.000000	-1.155616	0.000000
0.552000	18.099915	343.077313	11.129580	0.246490	0.000000	0.140202	0.000000	-1.161221	0.000000
0.553000	18.539879	344.187803	11.244123	0.246680	0.000000	0.140468	0.000000	-1.166312	0.000000
0.554000	18.984060	345.321866	11.362552	0.243998	0.000000	0.139057	0.000000	-1.170930	0.000000
0.555000	19.432322	346.479606	11.484455	0.240350	0.000000	0.135177	0.000000	-1.175136	0.000000
0.556000	19.884444	347.661611	11.609531	0.239002	0.000000	0.137119	0.000000	-1.179027	0.000000
0.557000	20.340187	348.868276	11.737667	0.246543	0.000000	0.143069	0.000000	-1.182733	0.000000
0.558000	20.799324	350.099712	11.868880	0.248866	0.000000	0.142984	0.000000	-1.186404	0.000000
0.559000	21.261617	351.355923	12.003229	0.248989	0.000000	0.140255	0.000000	-1.190177	0.000000
0.560000	21.726794	352.636883	12.140780	0.248575	0.000000	0.139194	0.000000	-1.194170	0.000000
0.561000	22.194579	353.942671	12.281571	0.244405	0.000000	0.141042	0.000000	-1.198479	0.000000
0.562000	22.664737	355.273520	12.425616	0.247008	0.000000	0.140204	0.000000	-1.203181	-0.000000
0.563000	23.137054	356.629645	12.572946	0.246266	0.000000	0.141208	0.000000	-1.208329	-0.000000
0.564000	23.611328	358.011064	12.723597	0.247386	0.000000	0.141224	0.000000	-1.213946	-0.000000
0.565000	24.087405	359.417132	12.877551	0.248186	0.000000	0.140829	0.000000	-1.220017	-0.000000
0.566000	24.565212	360.845837	13.034668	0.247390	0.000000	0.140683	0.000000	-1.226480	-0.000000
0.567000	25.044766	362.293468	13.194663	0.247973	0.000000	0.140180	0.000000	-1.233227	-0.000000
0.568000	25.526177	363.754963	13.357151	0.241266	0.000000	0.142156	0.000000	-1.240134	-0.000000
0.569000	26.009638	365.224880	13.521761	0.245094	0.000000	0.141451	0.000000	-1.247085	-0.000000
0.570000	26.495412	366.698376	13.688193	0.247530	0.000000	0.141223	0.000000	-1.254005	-0.000000
0.571000	26.983859	368.171637	13.856153	0.247227	0.000000	0.141288	0.000000	-1.260860	-0.000000
0.572000	27.475465	369.642052	14.025291	0.246888	0.000000	0.140847	0.000000	-1.267644	-0.000000
0.573000	27.970826	371.108191	14.195225	0.249064	0.000000	0.140411	0.000000	-1.274351	-0.000000
0.574000	28.470634	372.569563	14.365590	0.248995	0.000000	0.138403	0.000000	-1.280951	-0.000000
